#!OML:ASF F:\VICON\USERDATA\INSTALL\rory3\rory3.ASF
:FULLY-SPECIFIED
:DEGREES
113
root -0.6937397338131783 18.20336920846822 26.66655144535471 3.4637215964245063 2.1958150885989185 -2.6563461813530616
lfemur -44.64577976022949 3.7741588697045936 -18.314919480109722
ltibia 66.41686447685296
lfoot -1.4271666974402244 -7.384588254229763
ltoes -16.584376323731007
rfemur -0.682276636370668 -4.407629279337083 24.876374624416275
rtibia 3.1738248388155768
rfoot 30.38626563022099 -3.8372929846549715
rtoes 5.407214566881365
lowerback 1.0 -0.012315433917282514 2.558033404987184
upperback -1.8658173276017425 0.9775651715955072 0.6570560889629058
thorax -7.379978989829637 0.16530260556015752 0.006863261086418201
lowerneck -17.37610926945259 -6.330282707815666 -1.730168408975398
upperneck 17.646786662009024 -7.25065853164016 2.505016305443282
head 8.349786237130473 -3.846690136148138 0.3742960707923005
lclavicle -4.968684162769811e-14 -8.788908940785007e-15
lhumerus -64.27000046581738 1.782117547553816 83.53036405601995
lradius 81.74633072700975
lwrist 35.34426520671049
lhand -28.425898861520512 -2.2873322780342518
lfingers nan
lthumb -1.862155605671892 28.664295456786192
rclavicle -4.490102345871236e-14 -3.850861592475107e-15
rhumerus -28.950060389779775 20.77148314651062 -93.25212901348233
rradius 137.62535181646263
rwrist -23.051673277186463
rhand -20.801023702254607 1.0
rfingers nan
rthumb 5.635334087603763 6.057470111920042
114
root -0.6919200007437818 18.227070973426894 27.023409827837597 3.5700694971271094 2.293998268190813 -2.9083913438343827
lfemur -44.03869350379194 3.644434097673355 -18.396968309426526
ltibia 61.23990454786552
lfoot 1.8439193937825062 -9.888230941487715
ltoes -7.6274596061218185
rfemur -1.4994186739326683 -3.9620728249928097 25.261150049686943
rtibia 4.879910907668318
rfoot 30.764055929888965 -3.9075626361043865
rtoes 8.087865695045945
lowerback 1.0 -0.02237505845945209 2.4235794919533546
upperback -2.1126598263440397 1.0162244252275465 0.6547747640382133
thorax -7.611202203581021 0.15251702153174962 0.026302579073192195
lowerneck -17.07724038994197 -6.296033720573274 -1.7782464373251778
upperneck 17.87283596760943 -7.127955240743812 2.5823660440642158
head 8.433519067101928 -3.786732966287194 0.40554828091336903
lclavicle -1.3126142684897015e-14 3.901747211185103e-15
lhumerus -64.24592406071096 1.9424074208172977 83.44065226580292
lradius 83.05971145972859
lwrist 35.560111626060085
lhand -27.14887374671382 -4.608015749724601
lfingers nan
lthumb -0.5045762363875754 26.40217525849155
rclavicle -8.980642503122355e-15 8.440077651857005e-15
rhumerus -30.425464179484237 22.11815039865556 -94.57525314041821
rradius 136.8241171031491
rwrist -10.411912121972362
rhand -27.36736395401443 1.0
rfingers nan
rthumb -0.7572601333893578 0.525643433734766
115
root -0.6969350960768925 18.245550786942857 27.327399986684824 3.5670017446127393 2.1973465962662257 -3.3606860144142274
lfemur -43.262269651835766 3.8751493523638922 -18.364180846321382
ltibia 56.1995869791333
lfoot 4.20957527280505 -11.577567714800134
ltoes -0.4756502248083372
rfemur -2.3435946716098304 -3.356173425667165 25.861332669787334
rtibia 7.170733504095516
rfoot 30.407055508441957 -4.213741641176031
rtoes 8.415660215284776
lowerback 1.0 0.014115864512227905 2.388329974553785
upperback -2.2387512532189078 1.155944774736947 0.7313677285934072
thorax -7.74340578295008 0.18373666523259702 0.04117891365997005
lowerneck -17.32478995936036 -6.277058946067919 -1.6215871651495046
upperneck 18.27637023263619 -7.050405683727215 2.4381933004047265
head 8.605429801072479 -3.7544457089581638 0.3515002893369059
lclavicle 8.036607415199202e-15 7.065241408223243e-16
lhumerus -64.07125763106531 2.0064147065792435 83.43227799081515
lradius 84.40921244204037
lwrist 35.88231888283588
lhand -26.236370522875422 -5.696858875290145
lfingers nan
lthumb 0.5349149111206888 25.65116686841109
rclavicle 1.2456617307534273e-14 5.488307614065906e-15
rhumerus -31.33693875432586 22.85924795233659 -95.34638462042723
rradius 136.14463757544914
rwrist -5.9946507586410736
rhand -19.916760218895796 1.0
rfingers nan
rthumb 6.718199354283555 14.04581113987346
116
root -0.6987150594890676 18.256631154767373 27.497516567763586 3.5567878833574906 2.0519219192160585 -3.530167985751334
lfemur -42.41491487167983 4.199697327752504 -18.63404235238228
ltibia 51.362857727300565
lfoot 6.020961100193748 -12.670391294181975
ltoes 2.7797705733816027
rfemur -3.1598080709054948 -2.8317411874258407 26.097254280502423
rtibia 9.910820139465606
rfoot 29.697762583049904 -4.523225694308947
rtoes 6.4844613933311335
lowerback 1.0 0.047251793242934825 2.100682036622813
upperback -2.2223164170170624 1.2658357323786809 0.744689970024805
thorax -7.678944401807861 0.20884837275758966 0.15059305876753826
lowerneck -18.096267182456753 -6.232537757243435 -1.4808143535763063
upperneck 18.47514289019508 -6.917460377377581 2.3262813919637315
head 8.759176482590876 -3.6918829620015647 0.3123681236794428
lclavicle -2.9381726764158796e-15 -1.4509734046916603e-14
lhumerus -63.831515157116456 2.133252352147882 83.50838015470423
lradius 85.92369596580257
lwrist 35.8999780844249
lhand -26.015940383768797 -5.859601452204458
lfingers nan
lthumb 0.7395105903519719 25.530328887798113
rclavicle 1.7905689918874243e-15 -9.59255939816241e-15
rhumerus -31.511047826904473 22.957214471630387 -95.4422055938535
rradius 135.52680713034687
rwrist -10.157422487750702
rhand -18.937774703328827 1.0
rfingers nan
rthumb 7.6738217448701675 14.957767828816312
